<?xml version="1.0" encoding="utf-8"?>
<svg version="1.1" xmlns="http://www.w3.org/2000/svg" xmlns:xlink="http://www.w3.org/1999/xlink" x="0px" y="0px" viewBox="0 0 1000 1000" enable-background="new 0 0 1000 1000" xml:space="preserve">
<g>
  <path d="M989.8,466.3c-5.8-26.7-19.1-37.6-46.2-37.6c-25.3-0.1-50.6,0.3-75.9-0.2c-7.5-0.1-9.7,1.8-9.6,9.5c0.3,59.2,0.2,118.4,0.2,177.6c-0.1,46.4-34.9,81.1-81.4,81.4c-18.6,0.1-37.1,0-55.7,0c-70.1,0-140.2,0.1-210.3-0.2c-7.6,0-10,2-9.4,9.6c0.7,9.2,0.1,18.6,0.2,27.8c0.1,34,17.5,51.5,51.4,51.5c60.8,0,121.6,0.1,182.4-0.1c5.8,0,9.3,1.7,12.5,6.5c14,20.7,28.3,41.2,42.6,61.6c15,21.5,30.2,42.8,45.3,64.2c-0.2,0.6-0.1,1.1,0.2,1.7c7,0,14.1,0,21.1,0c0-0.6,0-1.3,0-1.9c0.2-40.9,0.6-81.8,0.4-122.7c0-7.9,2.4-9.5,9.7-9.4c24.3,0.4,48.6,0.2,72.9,0.2c30.9,0,45.1-12.2,49.8-42.7C989.9,650.9,989.9,558.6,989.8,466.3z"/>
  <path d="M331.5,661.5h429.2c30.5,0,55.2-25.5,55.2-57V137.3c0-31.5-24.7-57-55.2-57H65.2c-30.5,0-55.2,25.5-55.2,57v467.2c0,31.5,24.7,57,55.2,57H124l2.6,252.4L331.5,661.5z M150.3,209h526.3c18,0,32.7,14.6,32.7,32.7c0,18-14.6,32.7-32.7,32.7H150.3c-18,0-32.7-14.6-32.7-32.7C117.7,223.6,132.3,209,150.3,209z M150.3,321.4h526.3c18,0,32.7,14.6,32.7,32.7s-14.6,32.7-32.7,32.7H150.3c-18,0-32.7-14.6-32.7-32.7S132.3,321.4,150.3,321.4z M150.3,433.7h526.3c18,0,32.7,14.6,32.7,32.7c0,18-14.6,32.7-32.7,32.7H150.3c-18,0-32.7-14.6-32.7-32.7C117.7,448.4,132.3,433.7,150.3,433.7z"/>
</g>
</svg>
