<?xml version="1.0" encoding="utf-8"?>
<svg version="1.1" xmlns="http://www.w3.org/2000/svg" xmlns:xlink="http://www.w3.org/1999/xlink" x="0px" y="0px" viewBox="0 0 1000 1000" enable-background="new 0 0 1000 1000" xml:space="preserve">
<g><path d="M945.6,909H98.9V45.5C98.9,20.5,79,0.1,54.4,0.1C29.9,0.1,10,20.5,10,45.5v908.9c0,25.1,19.9,45.4,44.4,45.4h891.1c24.5,0,44.4-20.3,44.4-45.4C990,929.4,970.1,909,945.6,909L945.6,909L945.6,909z"/><path d="M215.2,877.7h103.3V655.9H215.2V877.7z M387.4,877.7h103.3V552H387.4V877.7z M580.2,877.7h103.3V468.8H580.2V877.7z M766.1,877.7h103.3V351H766.1V877.7z M858,254l40.7-233L667.2,73.2l71.4,67.7L537.4,351.5l-99.7-90L149.3,559.1l42.1,41.3l-0.1,0l249-256.9l100,90.2l241.1-252.1L858,254L858,254z"/></g>
</svg>
