<?xml version="1.0" encoding="utf-8"?>
<svg version="1.1" xmlns="http://www.w3.org/2000/svg" xmlns:xlink="http://www.w3.org/1999/xlink" x="0px" y="0px" viewBox="0 0 1000 1000" enable-background="new 0 0 1000 1000" xml:space="preserve">
<g>
  <g transform="translate(0.000000,511.000000) scale(0.100000,-0.100000)">
    <path d="M5315.2,3764.2c-188.2-39.2-396-149-527.4-278.4c-258.8-254.9-354.9-564.7-354.9-1137.1c0-684.3,196.1-1184.2,556.8-1423.4c176.5-115.7,372.5-170.6,617.6-170.6c423.5,0,711.7,149,923.4,474.5c209.8,325.5,311.7,886.2,256.8,1425.3c-41.2,398-152.9,652.9-382.3,860.7C6144.5,3754.4,5719,3852.5,5315.2,3764.2z"/><path d="M1846.9,2529.1c-317.6-84.3-552.9-345.1-627.4-694c-39.2-176.5-49-507.8-23.5-717.6c45.1-362.7,158.8-617.6,354.9-798c156.8-145.1,284.3-194.1,541.1-205.9c315.7-13.7,505.8,58.8,692.1,262.7c162.7,178.4,251,401.9,298,750.9c25.5,184.3,13.7,535.2-23.5,707.8c-74.5,352.9-309.8,609.7-635.2,696C2278.2,2568.3,1988,2568.3,1846.9,2529.1z"/><path d="M5501.4,386.1c-151-39.2-205.9-105.9-205.9-247c0-103.9,43.1-215.7,139.2-364.7l56.9-90.2l-127.4-360.8c-70.6-198-133.3-374.5-139.2-390.1c-13.7-35.3-56.9,86.2-301.9,868.5c-102,319.6-192.1,582.3-203.9,582.3c-72.5,0-1123.4-598-1268.5-721.5l-80.4-68.6l-251,131.3c-139.2,72.5-256.8,123.5-260.8,115.7c-5.9-7.9-90.2-270.6-190.2-584.2c-98-311.7-186.3-574.5-194.1-584.3c-7.8-7.8-62.7,125.5-121.6,294.1l-107.8,309.8l62.7,107.8c180.4,303.9,105.9,480.4-196.1,466.6c-121.6-5.9-139.2-13.7-190.2-70.6c-31.4-35.3-56.9-84.3-56.9-109.8c0-66.7,51-200,115.7-303.9l54.9-90.2l-109.8-307.8c-60.8-170.6-113.7-309.8-119.6-309.8s-88.2,249-184.3,554.8c-96.1,303.9-180.4,572.5-190.2,598l-17.6,43.1l-180.4-90.2C805.8-449.1,407.8-694.1,300-809.8c-174.5-186.3-200-319.6-200-1074.4v-594.1h2054.7h2052.7l529.4,531.3c292.1,292.1,564.6,550.9,607.8,576.4c172.5,100,411.7,103.9,601.9,7.8c52.9-25.5,270.6-227.4,570.5-523.5l484.3-482.3l558.8,556.8l558.8,558.8v156.8c-2,437.2-154.9,672.5-617.6,952.8c-390.2,235.3-980.3,547-996,527.4c-3.9-5.9-105.9-327.4-227.4-715.6c-123.5-388.2-229.4-717.6-237.2-733.3c-15.7-29.4-19.6-19.6-184.3,447l-107.8,303.9l39.2,52.9c74.5,105.9,160.8,317.6,162.7,398c2,98-43.1,174.5-127.4,219.6C5752.4,392,5585.7,407.7,5501.4,386.1z"/><path d="M9208.9-449.1c-449-23.5-470.5-25.5-505.8-68.6c-19.6-23.5-35.3-52.9-35.3-62.7c0-11.8,74.5-98,166.7-190.2c92.1-94.1,166.7-180.4,166.7-190.2s-449-468.6-999.9-1017.5l-999.9-999.9l-623.5,623.5c-674.5,674.5-688.2,684.3-819.5,615.6c-31.4-17.7-327.4-301.9-658.8-635.2l-603.9-605.8v-88.2c0-176.5,190.2-313.7,335.3-245.1c37.2,17.6,282.3,247,547,511.7l480.3,480.3l627.4-627.4l629.3-627.4h86.3h88.2l1137.1,1137.1l1137.1,1137.1l166.7-166.7c125.5-125.5,178.4-166.7,217.6-166.7c105.9,0,105.9,0,145.1,847c11.8,274.5,11.8,288.2-27.5,327.4c-29.4,29.4-62.7,41.2-113.7,39.2C9710.8-423.6,9465.7-435.3,9208.9-449.1z"/>
  </g>
</g>
</svg>
