<?xml version="1.0" encoding="iso-8859-1"?>
<svg version="1.1" id="Capa_1" xmlns="http://www.w3.org/2000/svg" xmlns:xlink="http://www.w3.org/1999/xlink" x="0px" y="0px"
	 viewBox="0 0 496.64 496.64" style="enable-background:new 0 0 496.64 496.64;" xml:space="preserve">
<g>
	<g>
		<g>
			<path d="M443.392,398.336c21.905-22.48,21.438-58.461-1.042-80.366c-22.48-21.905-58.461-21.438-80.366,1.042
				c-21.504,22.069-21.504,57.255,0,79.324c-17.518,12.784-27.959,33.098-28.16,54.784v28.16c0,8.483,6.877,15.36,15.36,15.36
				H455.68c8.483,0,15.36-6.877,15.36-15.36v-28.16C470.959,431.525,460.716,411.228,443.392,398.336z"/>
			<path d="M134.656,398.336c21.905-22.48,21.438-58.461-1.042-80.366c-22.48-21.905-58.461-21.438-80.366,1.042
				c-21.504,22.069-21.504,57.255,0,79.324C35.924,411.228,25.681,431.525,25.6,453.12v28.16c0,8.483,6.877,15.36,15.36,15.36
				h106.496c8.483,0,15.36-6.877,15.36-15.36v-28.16C162.615,431.434,152.174,411.12,134.656,398.336z"/>
			<path d="M288.768,398.336c21.905-22.48,21.438-58.461-1.042-80.366c-22.48-21.905-58.461-21.438-80.366,1.042
				c-21.504,22.069-21.504,57.255,0,79.324c-17.324,12.892-27.568,33.189-27.648,54.784v28.16c0,8.483,6.877,15.36,15.36,15.36
				h106.496c8.483,0,15.36-6.877,15.36-15.36v-28.16C316.727,431.434,306.286,411.12,288.768,398.336z"/>
			<path d="M343.04,268.8l0.512-0.512l20.992-38.4h79.872c8.483,0,15.36-6.877,15.36-15.36V15.36c0-8.483-6.877-15.36-15.36-15.36
				H62.464c-8.483,0-15.36,6.877-15.36,15.36v199.68c0,8.483,6.877,15.36,15.36,15.36h69.12l20.992,38.4
				c4.232,7.352,13.623,9.881,20.975,5.649c2.348-1.352,4.297-3.301,5.649-5.649l20.992-38.4h95.232l20.992,38.4
				c4.232,7.352,13.623,9.881,20.975,5.649C339.739,273.097,341.688,271.148,343.04,268.8z M105.984,69.632H266.24v30.72H105.984
				V69.632z M105.984,156.16v-30.72h284.672v30.72H105.984z"/>
		</g>
	</g>
</g>
</svg>
